<svg xmlns="http://www.w3.org/2000/svg" style="display: none;">

    <symbol id="phone" viewBox="0 0 513.64 513.64">
        <g>
            <g>
                <path d="M499.66,376.96l-71.68-71.68c-25.6-25.6-69.12-15.359-79.36,17.92c-7.68,23.041-33.28,35.841-56.32,30.72
                    c-51.2-12.8-120.32-79.36-133.12-133.12c-7.68-23.041,7.68-48.641,30.72-56.32c33.28-10.24,43.52-53.76,17.92-79.36l-71.68-71.68
                    c-20.48-17.92-51.2-17.92-69.12,0l-48.64,48.64c-48.64,51.2,5.12,186.88,125.44,307.2c120.32,120.32,256,176.641,307.2,125.44
                    l48.64-48.64C517.581,425.6,517.581,394.88,499.66,376.96z"/>
            </g>
        </g>
    </symbol>

    <symbol id="hour-24" viewBox="0 0 512 512">
        <g>
            <path d="M503.467,460.8h-25.6V298.667c0-4.71-3.831-8.533-8.542-8.525c-2.782,0-5.385,1.357-6.98,3.635
                L342.878,464.444c-2.697,3.866-1.758,9.182,2.108,11.887c1.425,0.998,3.132,1.536,4.881,1.536H460.8v25.6
                c0,4.71,3.823,8.533,8.533,8.533c4.71,0,8.533-3.823,8.533-8.533v-25.6h25.6c4.71,0,8.533-3.823,8.533-8.533
                C512,464.623,508.177,460.8,503.467,460.8z M460.8,325.734V460.8h-94.549L460.8,325.734z"/>
            <path d="M349.867,494.933H248.841l93.926-110.601c0.213-0.256,0.41-0.521,0.597-0.794
                c17.673-26.155,11.785-61.559-13.397-80.589c-30.618-21.999-73.276-15.01-95.275,15.607c-8.337,11.605-12.826,25.549-12.826,39.842
                c0,4.71,3.823,8.533,8.533,8.533s8.533-3.823,8.533-8.533c0-28.279,22.921-51.2,51.191-51.209c10.718,0,21.163,3.362,29.875,9.617
                c17.638,13.517,21.751,38.409,9.387,56.875L223.898,497.946c-3.046,3.593-2.611,8.977,0.981,12.023
                c1.545,1.314,3.499,2.031,5.521,2.031h119.467c4.71,0,8.533-3.823,8.533-8.533C358.4,498.756,354.577,494.933,349.867,494.933z"/>
        </g>
        <g>
            <path  d="M230.588,452.429c0.179-4.71-3.499-8.67-8.209-8.849l0,0
                C111.053,439.45,21.7,350.251,17.365,238.933H51.2c4.71,0,8.533-3.823,8.533-8.533s-3.823-8.533-8.533-8.533H17.365
                c4.267-111.121,93.38-200.226,204.501-204.493v25.293c0,4.71,3.823,8.533,8.533,8.533s8.533-3.823,8.533-8.533V17.374
                c109.602,4.241,198.067,91.034,204.39,200.533l-33.28-33.28c-3.388-3.277-8.789-3.183-12.066,0.213
                c-3.191,3.311-3.191,8.55,0,11.853l47.633,47.633c0.896,1.084,2.057,1.929,3.362,2.449c0.333,0.102,0.674,0.179,1.015,0.247
                c0.589,0.213,1.195,0.358,1.809,0.435c0.085,0,0.162,0,0.247,0c0.085,0,0.162,0,0.239,0c0.649-0.051,1.289-0.179,1.911-0.375
                c0.35-0.043,0.7-0.111,1.041-0.196c1.152-0.41,2.21-1.067,3.081-1.929l48.282-48.265c3.277-3.388,3.183-8.789-0.213-12.066
                c-3.311-3.191-8.55-3.191-11.853,0l-34.108,34.082C454.332,96.393,353.476,0.299,231.006,0.119C230.793,0.111,230.613,0,230.4,0
                s-0.393,0.111-0.606,0.119C103.023,0.29,0.29,103.023,0.119,229.794c0,0.213-0.119,0.393-0.119,0.606s0.111,0.393,0.119,0.606
                c0.213,123.648,98.065,225.033,221.628,229.632h0.316C226.645,460.638,230.417,457.011,230.588,452.429z"/>
            <path  d="M345.045,115.755c-3.328-3.328-8.738-3.328-12.066,0l-91.699,91.691
                c-6.929-3.089-14.839-3.089-21.769,0l-43.418-43.418c-3.388-3.277-8.789-3.183-12.066,0.213c-3.191,3.311-3.191,8.55,0,11.853
                l43.332,43.332c-6.084,12.74-0.691,27.989,12.049,34.074c9.779,4.668,21.436,2.671,29.09-4.992l0,0
                c7.697-7.637,9.685-19.328,4.932-29.073l91.614-91.614C348.373,124.493,348.373,119.083,345.045,115.755z M236.433,236.433
                L236.433,236.433c-3.371,3.226-8.695,3.226-12.066,0c-3.337-3.328-3.337-8.738,0-12.066c3.337-3.328,8.738-3.337,12.066,0
                C239.77,227.695,239.77,233.097,236.433,236.433L236.433,236.433z"/>
        </g>
    </symbol>

    <symbol id="hand-heart" viewBox="0 0 512 512">
        <g>
            <g>
                <path d="M467.76,88.1c-1.87-1.87-4.44-2.931-7.071-2.931c-2.64,0-5.21,1.061-7.081,2.931c-1.859,1.859-2.92,4.43-2.92,7.07
                    c0,2.63,1.061,5.211,2.92,7.071c1.87,1.86,4.44,2.93,7.081,2.93c2.63,0,5.201-1.069,7.071-2.93c1.86-1.86,2.92-4.44,2.92-7.071
                    C470.68,92.53,469.62,89.959,467.76,88.1z"/>
            </g>
        </g>
        <g>
            <g>
                <path d="M238.071,323.626c-1.869-1.87-4.44-2.931-7.071-2.931c-2.64,0-5.211,1.061-7.081,2.931c-1.859,1.859-2.92,4.43-2.92,7.07
                    c0,2.63,1.061,5.21,2.92,7.071c1.87,1.86,4.44,2.93,7.081,2.93c2.63,0,5.201-1.069,7.071-2.93c1.86-1.86,2.92-4.44,2.92-7.071
                    C240.992,328.056,239.932,325.485,238.071,323.626z"/>
            </g>
        </g>
        <g>
            <g>
                <path d="M491.983,121.313c-2.73-4.802-8.838-6.48-13.637-3.75c-4.801,2.73-6.48,8.836-3.749,13.637
                    c29.706,52.238,20.738,118.438-21.81,160.985l-7.583,7.583c-1.832-4.807-4.67-9.316-8.537-13.182L333.911,183.831
                    c6.72-3.306,12.929-7.717,18.38-13.168l19.708-19.709c3.905-3.905,3.905-10.238,0-14.143c-3.906-3.905-10.237-3.905-14.144,0
                    l-19.708,19.709c-9.259,9.258-21.568,14.357-34.661,14.357h-39.397c-2.652,0-5.195,1.054-7.072,2.929l-30.16,30.16
                    c-8.956,8.957-23.529,8.957-32.485,0c-8.957-8.956-8.957-23.529,0-32.485l68.856-68.855C305.307,60.546,371,51.292,422.975,80.122
                    c4.83,2.677,10.918,0.936,13.597-3.895c2.679-4.83,0.935-10.918-3.895-13.597c-28.668-15.899-62.444-22.262-95.112-17.911
                    c-30.572,4.071-58.555,16.872-81.493,37.184C227.893,56.922,192.02,43.261,154.04,43.261c-41.146,0-79.828,16.023-108.923,45.117
                    S0,156.157,0,197.302c0,41.146,16.023,79.828,45.117,108.923l3.769,3.769c0.656,0.655,1.384,1.191,2.153,1.626
                    c0.669,8.652,4.294,17.116,10.897,23.718c7.349,7.348,16.997,11.02,26.648,11.02c0.501,0,1.003-0.016,1.504-0.036
                    c-0.02,0.506-0.037,1.012-0.037,1.521c0,10.066,3.92,19.53,11.038,26.648c7.349,7.348,16.997,11.021,26.648,11.02
                    c0.501,0,1.003-0.016,1.504-0.036c-0.02,0.506-0.037,1.012-0.037,1.521c0,10.066,3.92,19.53,11.039,26.648
                    c7.348,7.347,16.998,11.02,26.648,11.02c0.507,0,1.014-0.016,1.521-0.036c-0.406,10.151,3.251,20.437,10.984,28.171
                    c7.119,7.118,16.583,11.038,26.648,11.038c10.067,0,19.531-3.92,26.648-11.038l13.977-13.978l18.879,18.877
                    c7.118,7.119,16.582,11.039,26.648,11.039c10.066,0,19.53-3.92,26.648-11.038c7.826-7.826,11.482-18.267,10.972-28.537
                    c0.628,0.031,1.258,0.049,1.887,0.049c9.651,0,19.303-3.673,26.65-11.021c7.729-7.729,11.386-18.007,10.984-28.153
                    c0.506,0.02,1.012,0.037,1.521,0.037c10.066,0,19.53-3.92,26.648-11.038c7.729-7.729,11.386-18.007,10.984-28.153
                    c0.506,0.02,1.012,0.037,1.521,0.037c10.066,0,19.53-3.92,26.648-11.038c3.615-3.615,6.337-7.791,8.173-12.248
                    c0.973-0.474,1.888-1.105,2.697-1.913l19.394-19.394C515.824,257.436,526.126,181.354,491.983,121.313z M88.585,326.374
                    c-4.724,0-9.165-1.839-12.506-5.18c-3.34-3.34-5.18-7.781-5.18-12.505c0-4.723,1.839-9.165,5.18-12.505l17.234-17.234
                    c3.34-3.341,7.782-5.18,12.506-5.18c4.723,0,9.165,1.839,12.505,5.18c6.896,6.896,6.896,18.115,0,25.01l-17.234,17.235
                    C97.75,324.534,93.31,326.374,88.585,326.374z M115.235,360.349c-3.341-3.34-5.18-7.782-5.18-12.505
                    c0-4.724,1.839-9.165,5.18-12.505l17.235-17.235c0,0,0,0,0-0.001c3.34-3.34,7.781-5.18,12.505-5.18
                    c4.723,0,9.165,1.839,12.505,5.18c6.896,6.896,6.896,18.115,0,25.01l-17.234,17.235
                    C133.349,367.243,122.127,367.243,115.235,360.349z M154.388,399.502c-3.341-3.34-5.18-7.782-5.18-12.505
                    c0-4.724,1.839-9.165,5.18-12.505l17.235-17.235c0,0,0,0,0-0.001c3.34-3.34,7.781-5.18,12.505-5.18
                    c4.724,0,9.165,1.839,12.505,5.18c6.896,6.897,6.896,18.116,0,25.011l-17.235,17.235
                    C172.503,406.398,161.284,406.398,154.388,399.502z M235.787,421.422l-17.235,17.236c-3.34,3.34-7.781,5.18-12.505,5.18
                    c-4.723,0-9.165-1.839-12.505-5.18c-6.896-6.897-6.896-18.116,0-25.011l17.235-17.235c0,0,0,0,0-0.001
                    c3.34-3.34,7.781-5.18,12.505-5.18c4.723,0,9.165,1.839,12.505,5.18c3.341,3.34,5.18,7.782,5.18,12.505
                    C240.968,413.642,239.128,418.082,235.787,421.422z M422.523,325.739c-3.34,3.341-7.782,5.18-12.505,5.18
                    c-4.724,0-9.165-1.839-12.505-5.18l-41.627-41.627c-0.002-0.002-0.003-0.003-0.005-0.005l-39.15-39.15
                    c-3.906-3.905-10.237-3.905-14.144,0c-3.905,3.905-3.905,10.238,0,14.143l80.782,80.78c6.896,6.897,6.896,18.116,0,25.011
                    c-3.34,3.341-7.782,5.18-12.505,5.18c-4.724,0-9.165-1.839-12.505-5.18l-80.782-80.781c-3.906-3.904-10.237-3.904-14.144,0
                    c-3.905,3.905-3.905,10.238,0,14.144l39.146,39.145c0.003,0.003,0.006,0.007,0.009,0.01l41.628,41.626
                    c6.896,6.897,6.896,18.117,0.001,25.012c-6.897,6.896-18.118,6.896-25.011,0l-41.628-41.628c-0.77-0.769-1.635-1.381-2.556-1.847
                    l-11.873-11.873c-3.906-3.904-10.237-3.904-14.144,0c-3.905,3.905-3.905,10.238,0,14.144l55.702,55.7
                    c6.896,6.897,6.896,18.116,0,25.011c-3.34,3.341-7.782,5.18-12.505,5.18c-4.724,0-9.165-1.839-12.505-5.18l-21.196-21.195
                    c1.615-4.237,2.469-8.774,2.469-13.444c0-10.066-3.92-19.53-11.038-26.648c-7.119-7.118-16.583-11.038-26.648-11.038
                    c-0.509,0-1.015,0.017-1.521,0.037c0.401-10.146-3.255-20.424-10.984-28.153c-7.119-7.118-16.583-11.038-26.648-11.038
                    c-0.509,0-1.015,0.017-1.521,0.037c0.402-10.146-3.255-20.424-10.984-28.153c-7.119-7.118-16.583-11.038-26.648-11.038
                    c-0.509,0-1.015,0.017-1.521,0.037c0.402-10.146-3.255-20.424-10.984-28.153c-14.694-14.694-38.605-14.693-53.299,0
                    l-17.234,17.234c-2.174,2.174-4.017,4.553-5.549,7.071c-23.491-24.951-36.385-57.388-36.385-91.81
                    c0-35.803,13.942-69.464,39.26-94.78c25.316-25.316,58.978-39.259,94.78-39.259c32.536,0,63.302,11.516,87.644,32.618
                    l-61.457,61.457c-8.116,8.117-12.586,18.908-12.586,30.386c0,11.479,4.47,22.27,12.586,30.387
                    c8.378,8.377,19.383,12.566,30.387,12.566s22.009-4.188,30.387-12.566l27.232-27.232h35.253c2.911,0,5.79-0.199,8.634-0.552
                    l110.403,110.401C429.418,307.625,429.418,318.845,422.523,325.739z"/>
            </g>
        </g>
    </symbol>

    <symbol id="zoom" viewBox="0 0 512 512">
        <path d="M497.913,497.913c-18.782,18.782-49.225,18.782-68.008,0l-84.862-84.863c-34.889,22.382-76.13,35.717-120.659,35.717  C100.469,448.767,0,348.312,0,224.383S100.469,0,224.384,0c123.931,0,224.384,100.452,224.384,224.383  c0,44.514-13.352,85.771-35.718,120.676l84.863,84.863C516.695,448.704,516.695,479.131,497.913,497.913z M224.384,64.109  c-88.511,0-160.274,71.747-160.274,160.273c0,88.526,71.764,160.274,160.274,160.274c88.525,0,160.273-71.748,160.273-160.274  C384.657,135.856,312.909,64.109,224.384,64.109z"/>
    </symbol>


    <symbol id="arr-right" viewBox="0 0 512 512">
        <g>
            <g>
                <path d="M508.875,248.458l-160-160c-4.167-4.167-10.917-4.167-15.083,0c-4.167,4.167-4.167,10.917,0,15.083l141.792,141.792
                    H10.667C4.771,245.333,0,250.104,0,256s4.771,10.667,10.667,10.667h464.917L333.792,408.458c-4.167,4.167-4.167,10.917,0,15.083
                    c2.083,2.083,4.813,3.125,7.542,3.125c2.729,0,5.458-1.042,7.542-3.125l160-160C513.042,259.375,513.042,252.625,508.875,248.458z
                    "/>
            </g>
        </g>

    </symbol>

    <symbol id="arr-right_white" viewBox="0 0 512 512">
        <g>
            <g fill="#fff">
                <path d="M508.875,248.458l-160-160c-4.167-4.167-10.917-4.167-15.083,0c-4.167,4.167-4.167,10.917,0,15.083l141.792,141.792
                    H10.667C4.771,245.333,0,250.104,0,256s4.771,10.667,10.667,10.667h464.917L333.792,408.458c-4.167,4.167-4.167,10.917,0,15.083
                    c2.083,2.083,4.813,3.125,7.542,3.125c2.729,0,5.458-1.042,7.542-3.125l160-160C513.042,259.375,513.042,252.625,508.875,248.458z
                    "/>
            </g>
        </g>

    </symbol>

    <symbol id="play" viewBox="0 0 512 512">
       <g>
            <g>
                <path d="M256,0C114.833,0,0,114.844,0,256s114.833,256,256,256s256-114.844,256-256S397.167,0,256,0z M357.771,264.969
                    l-149.333,96c-1.75,1.135-3.771,1.698-5.771,1.698c-1.75,0-3.521-0.438-5.104-1.302C194.125,359.49,192,355.906,192,352V160
                    c0-3.906,2.125-7.49,5.563-9.365c3.375-1.854,7.604-1.74,10.875,0.396l149.333,96c3.042,1.958,4.896,5.344,4.896,8.969
                    S360.813,263.01,357.771,264.969z"/>
            </g>
        </g>

    </symbol>

    <symbol id="opeca_logo" viewBox="0 0 122 102.22">
        <g>
            <g>
                <path d="M0,89.43c0-9.59,6.32-21.29,17.26-21.29,7,0,10,5.21,10,11.3,0,10.34-6.46,22.78-17.15,22.78C3.21,102.22,0,96.3,0,89.43Zm7.18-1c0,4.5,1.58,8.19,5.3,8.19,4.43,0,10.23-5.61,10.23-17.17,0-5.21-2.29-7.94-5.14-7.94C11.41,71.55,7.18,81.19,7.18,88.47Z" />
                <path d="M29.42,81.85a10.14,10.14,0,0,1,5.71-2.1c1.83,0,2.9.74,2.44,2.41l-.51,2a11.47,11.47,0,0,1,8.36-4.37c2.69,0,4.63,1.84,3.46,6.44L46.39,96.26c-.32,1.27.35,1.79,1.37,1.79a9.15,9.15,0,0,0,5.34-2.18,1.17,1.17,0,0,1,.87,1,1.37,1.37,0,0,1-.46,1c-2.4,2.32-5.8,4.34-9.22,4.34-2.54,0-5.24-1.1-4-6.22l2.14-8.72c.46-1.84-.25-2.58-1.38-2.58A7.49,7.49,0,0,0,36.56,87L33.44,99.46c-.5,2-2.44,2.76-4.27,2.76a5.09,5.09,0,0,1-2.4-.56L31,84.83c.21-.71-.05-1.1-.51-1.1a2,2,0,0,0-1,.53A1.46,1.46,0,0,1,29.42,81.85Z" />
                <path d="M59.4,95.16c.51,2.37,2.4,3.25,4.73,3.25a16,16,0,0,0,10.55-4.73c1.32-.23,1.84.7,1.27,1.48a19.36,19.36,0,0,1-14.36,7.06c-4.78,0-8.65-2.45-8.65-7.84,0-5.69,4.37-14.81,12.77-14.81,4.64,0,5.81,2.23,5.81,4.21C71.52,87.5,69.23,90.48,59.4,95.16Zm-.15-1.88c4.94-2.67,8.3-5.73,8.3-8.58A1.54,1.54,0,0,0,66.07,83C61,83,59.4,90.22,59.25,93.28Z" />
                <path d="M81.67,89.65l.32-.08c2.44-.67,5.85-4.65,7.07-9.34a6.31,6.31,0,0,1,2.45-.48c1.73,0,2.64,1,2.64,2,0,2.63-4,6.49-7.12,8.33.71,2.45,2.14,7.58,5.8,7.58,1,0,2.15-.79,3.46-1.84a1.17,1.17,0,0,1,.87,1,1.37,1.37,0,0,1-.46,1c-1.83,1.93-5.34,4.34-7.48,4.34-5.09,0-6.42-7-7.18-10.43l-.92.22-1.78,7.45c-.52,2-2.45,2.76-4.28,2.76a5.12,5.12,0,0,1-2.4-.56l4.17-16.83c.22-.75,0-1.1-.5-1.1a1.94,1.94,0,0,0-1,.53,1.45,1.45,0,0,1,0-2.41,10.08,10.08,0,0,1,5.7-2.1c1.82,0,2.84.7,2.44,2.41Z" />
                <path d="M116.5,94.82c-.57,2.23.1,3.2,1.12,3.2a3.26,3.26,0,0,0,2.85-2.11c1,0,1.53.44,1.53,1.18,0,3.07-4.18,5.13-7,5.13-2.4,0-4.79-1-4.74-4.42-2.14,2.58-4.83,4.42-7.74,4.42-5.29,0-6.36-4.56-6.36-7.36,0-7.67,5.75-15.29,12.82-15.29A8.39,8.39,0,0,1,114.2,81a5.36,5.36,0,0,1,5.86-.69Zm-6.17.13,2.86-11.74a8.11,8.11,0,0,0-2.4-.35c-6.16,0-8.35,6.92-8.35,11.69,0,2.19,1.18,3.16,2.75,3.16A7.6,7.6,0,0,0,110.33,95Z" />
            </g>

            <g>
                <path d="M66.62,41.13C76.54,45.51,86.83,54,99,56.75,89,52.69,80.92,40.84,66.62,41.13ZM36.47,38.41a20.2,20.2,0,0,1,2.68,8.7,27.33,27.33,0,0,1,10-7.39h0c10.8-4.31,18.56-1.24,24.22-.42,4.26.61,11-.77,11.42-6.95,0-.19,0-.52,0-.83A14.33,14.33,0,0,0,84.7,30s1.32-.58,1.49-.67c9.42-5.32,14.1-16.49,13.79-23.55-9.86,26.28-58,7.84-63.49,32.62Zm-19.33-.66C28.6,40.14,22,56.67,44.87,68.16c-26-7.5-16.6-25.33-27.73-30.41,2-.83,3.76-1,5.25,0a10.26,10.26,0,0,0-4.91-2.43h0s0,0,.06,0c2.69-2,5.31-1.59,6.72-.67,3-3.05,8-1.91,11.43,2.64l0,0C40.93,8.93,87.78,28.06,101.19,1l.31-.64.16-.32c.5,11.11-3.71,25.45-15.5,31.28.35,6.54-3,9.36-7.36,10.21,12.92,4.51,18.77,15.19,31,16a34.73,34.73,0,0,0,10.6-2.82l-.06,0,0,0C103.75,78,58.45,66.47,49.2,50.07c17,19.37,53.61,17,68.86,6l.07-.06c-31,17.26-51.44-30.76-79-8.89-.72-3.18-3.78-12.64-11.3-12.53-1.46.06-2.73.86-2.62,2.61a7.72,7.72,0,0,0-6.09-2c2.14.19,3.47,1.9,4.51,3.74h0l.07.09A11.47,11.47,0,0,0,17.14,37.75Zm13.18.87c.68.85.44,1.55.69,2.27a8.41,8.41,0,0,1,.37,1.18l-.94-.68c-.39-.29-.79-.12-1.72-.49a1.53,1.53,0,0,1-.62-2.4A1.36,1.36,0,0,1,30.32,38.62Z" style="fill-rule: evenodd"/>
                <g>
                    <path d="M29.62,39c.24.21,1.23,2.13-.77,1.09a.67.67,0,0,1-.12-1,.63.63,0,0,1,.89-.08" style="fill: #fff;fill-rule: evenodd"/>
                    <path d="M19.83,37.08a15.36,15.36,0,0,1,6.49-9.85l-.81-.92c-3.59,3.21-6.26,6-6.94,11a6.7,6.7,0,0,1,1.26-.18m-.72,9.21c.92,3.68,2.23,4.22,3,3.79a24.73,24.73,0,0,1-2.48-10.75,10.33,10.33,0,0,0-1.16-.88A29.06,29.06,0,0,0,19.11,46.29Z" style="fill-rule: evenodd"/>
                    <path d="M20.59,34.37c-4.08,3.39,1.84-3.88-.37-10.71l1.37-.32c1.34,3.27.71,6.66-1,11" style="fill-rule: evenodd"/>
                    <path d="M24.89,27.09c.75-9.24,10.08-5.57,13-7.75-.76,5.21-6.67,9.13-12.53,8.58Z" style="fill-rule: evenodd"/>
                    <path d="M21.13,26.24c-3-6.84-9.09-2.84-11.82-4.33,1.5,4.52,7.16,6.67,11.49,5.67Z" style="fill-rule: evenodd"/>
                    <path d="M20.29,23.9c-5-6.77,1.19-8.92,1-12,4.94,3.84,3.13,9.9.4,12.62Z" style="fill-rule: evenodd"/>
                    <path d="M10.69,16.68l.23-.6c5.1.68,8.52,3.46,10,6.66.22.48-.47.85-.27,1.38-2.7-4.25-6.05-6.67-10-7.44" style="fill-rule: evenodd"/>
                    <path d="M11.5,16.05c-2.41-6.64-7-2.2-9.86-3.79,1.46,4,5.83,5.38,9.59,4.49Z" style="fill-rule: evenodd"/>
                    <path d="M16.92,18.54c2.67-7.27-3.85-7.92-5.33-10.82a8.69,8.69,0,0,0,3.77,9.71Z" style="fill-rule: evenodd"/>
                </g>
            </g>
        </g>
    </symbol>


    <symbol id="opeca_logo_color" viewBox="0 0 512 429">
        <g>
            <g>
                <g>
                    <path style="fill: #296796;" class="st_text" d="M0,375.3C0,335.1,26.5,286,72.4,286c29.5,0,42.1,21.9,42.1,47.4c0,43.4-27.1,95.6-72,95.6
            C13.5,429,0,404.2,0,375.3z M30.1,371.3c0,18.9,6.7,34.4,22.3,34.4c18.6,0,42.9-23.5,42.9-72.1c0-21.9-9.6-33.3-21.6-33.3
            C47.9,300.3,30.1,340.7,30.1,371.3z"></path>
                    <path style="fill: #296796;" class="st_text" d="M123.5,343.5c7.3-4.9,15-8.8,23.9-8.8c7.7,0,12.2,3.1,10.2,10.1l-2.1,8.2c9-11,22.7-18.4,35.1-18.4
            c11.3,0,19.4,7.7,14.5,27L194.7,404c-1.3,5.3,1.5,7.5,5.8,7.5c7.9,0,17.1-4.6,22.4-9.2c2.4,0.9,3.6,2.6,3.6,4.4
            c0,1.3-0.6,2.8-1.9,4.1c-10.1,9.7-24.4,18.2-38.7,18.2c-10.7,0-22-4.6-16.7-26.1l9-36.6c1.9-7.8-1.1-10.9-5.8-10.9
            c-5.8,0-14.3,4.6-19,9.5l-13.1,52.4c-2.1,8.5-10.2,11.6-17.9,11.6c-3.8,0-7.5-0.9-10-2.4l17.5-70.6c0.9-3-0.2-4.6-2.1-4.6
            c-1,0-2.4,0.7-4.3,2.2C120.7,352.1,119.2,346.4,123.5,343.5z"></path>
                    <path style="fill: #296796;" class="st_text" d="M249.3,399.4c2.2,9.9,10.1,13.6,19.9,13.6c15.4,0,35.1-9.4,44.3-19.9c5.6-0.9,7.7,2.9,5.4,6.2
            C304,418,279.2,429,258.5,429c-20.1,0-36.3-10.3-36.3-32.9c0-23.9,18.4-62.1,53.6-62.1c19.5,0,24.4,9.4,24.4,17.7
            C300.2,367.2,290.5,379.7,249.3,399.4z M248.6,391.5c20.7-11.2,34.9-24.1,34.9-36c0-4.2-2.6-7.2-6.2-7.2
            C256.1,348.3,249.3,378.6,248.6,391.5z"></path>
                    <path style="fill: #296796;" class="st_text" d="M342.8,376.2l1.3-0.3c10.2-2.8,24.6-19.5,29.7-39.2c3.4-1.5,7.1-2,10.3-2c7.3,0,11.1,4,11.1,8.6
            c0,11-16.6,27.2-29.9,35c3,10.3,9,31.8,24.4,31.8c4.3,0,9-3.3,14.5-7.7c2.4,0.9,3.6,2.6,3.6,4.4c0,1.3-0.6,2.8-1.9,4.1
            c-7.7,8.1-22.4,18.2-31.4,18.2c-21.4,0-26.9-29.4-30.1-43.8l-3.9,0.9l-7.4,31.3c-2.2,8.5-10.3,11.6-18,11.6
            c-3.8,0-7.5-0.9-10.1-2.4l17.5-70.6c0.9-3.1-0.2-4.6-2.1-4.6c-1,0-2.3,0.7-4.2,2.2c-2.8-1.5-4.3-7.2,0-10.1
            c7.3-4.9,15-8.8,23.9-8.8c7.7,0,11.9,2.9,10.2,10.1L342.8,376.2z"></path>
                    <path style="fill: #296796;" class="st_text" d="M488.9,397.9c-2.4,9.4,0.4,13.4,4.7,13.4c3.8,0,8.8-2.2,12-8.8c4.1,0,6.4,1.8,6.4,5
            c0,12.9-17.5,21.5-29.5,21.5c-10.1,0-20.1-4-19.9-18.5c-9,10.8-20.3,18.5-32.5,18.5c-22.2,0-26.7-19.1-26.7-30.9
            c0-32.2,24.1-64.2,53.8-64.2c9.7,0,16.7,2,22,6.1c3.6-3.7,9.2-5.3,14.5-5.3c3.9,0,7.5,0.9,10,2.4L488.9,397.9z M463,398.5
            l12-49.3c-3.6-1.1-6.8-1.4-10.1-1.4c-25.9,0-35,29-35,49.1c0,9.2,4.9,13.3,11.5,13.3C448.3,410.1,457.2,405.3,463,398.5z"></path>
                </g>
                <g>
                    <path class="st1" style="fill: #296796;" d="M279.6,172.6c41.6,18.4,84.8,54,135.7,65.5C373.3,221.1,339.6,171.4,279.6,172.6z M153,161.2
            c5.8,9.5,10,21.8,11.3,36.5c14.4-15.8,28.3-25.6,42-31h-0.1c45.3-18.1,77.9-5.2,101.7-1.8c17.9,2.5,46.3-3.2,47.9-29.2
            c0-0.8,0.2-2.2,0.2-3.5c0-2.7-0.5-6.2-0.5-6.2s5.5-2.4,6.2-2.8c39.5-22.3,59.2-69.2,57.9-98.9C378.2,134.7,176,57.3,153.1,161.3
            L153,161.2z M72,158.4c48.1,10,20.5,79.4,116.4,127.6C79,254.6,118.6,179.7,72,158.4c8.3-3.5,15.7-4,22,0
            c-6.6-5.5-13.8-9.3-20.6-10.2h0c0.1-0.1,0.2-0.1,0.3-0.2c11.3-8.2,22.3-6.7,28.2-2.8c12.8-12.8,33.8-8,48,11.1l-0.1-0.1
            C171.8,37.5,368.4,117.7,424.7,4c0.1-0.2,0.9-1.8,1.3-2.7c0.5-1,0.7-1.4,0.7-1.4c2.1,46.6-15.6,106.8-65.1,131.3
            c1.5,27.4-12.4,39.3-30.9,42.8c54.2,18.9,78.8,63.8,130,67.1c14.2-1.4,29-5.1,44.5-11.8l-0.3,0.2l0.1-0.1
            c-69.6,97.7-259.8,49.5-298.6-19.4c71.3,81.3,225,71.3,289,25.2l0.3-0.2c-130.1,72.4-215.9-129.1-331.5-37.3
            c-3-13.3-15.9-53-47.4-52.6c-6.1,0.2-11.5,3.6-11,11c-6.5-6.5-15-8.9-25.5-8.5c9,0.8,14.5,8,18.9,15.7l0,0l0.3,0.4
            C89.6,158.5,80.6,157.7,72,158.4z M127.3,162.1c2.9,3.5,1.8,6.5,2.9,9.5c1,2.8,1.7,5,1.5,4.9l-3.9-2.8c-1.7-1.2-3.3-0.5-7.2-2.1
            c-4-1.6-5.6-6.8-2.6-10.1C120.9,158.3,124.7,158.9,127.3,162.1z"></path>
                    <g>
                        <path id="XMLID_10_" class="st2" style="fill: #87c242;" d="M124.3,163.6c1,0.8,5.2,8.9-3.2,4.6c-1.5-0.8-1.6-3-0.5-4.2
                C121.6,162.6,123.3,162.7,124.3,163.6"></path>
                        <path class="st3"  style="fill: #87c242;" d="M83.2,155.6c2.8-16,11.7-29.8,27.2-41.3l-3.4-3.9c-15.1,13.5-26.3,25.2-29.1,46
                C79.8,155.9,81.6,155.7,83.2,155.6 M80.2,194.2c3.8,15.4,9.3,17.7,12.5,15.9c-7.3-16.4-10.8-31.3-10.4-45.1
                c-1.5-1.3-3-2.5-4.9-3.7C76.7,170.5,77.6,181.1,80.2,194.2z"></path>
                        <path id="XMLID_7_"  style="fill: #87c242;" class="st3" d="M86.4,144.2c-17.1,14.2,7.7-16.3-1.5-44.9l5.7-1.3C96.2,111.7,93.6,125.9,86.4,144.2"></path>
                        <path id="XMLID_6_"  style="fill: #87c242;" class="st3" d="M104.4,113.7c3.2-38.8,42.3-23.4,54.7-32.5c-3.2,21.9-28,38.3-52.6,36L104.4,113.7z"></path>
                        <path id="XMLID_5_"  style="fill: #87c242;" class="st3" d="M88.7,110.1C76.2,81.4,50.5,98.2,39.1,92c6.3,19,30,28,48.2,23.8L88.7,110.1z"></path>
                        <path id="XMLID_4_"  style="fill: #87c242;" class="st3" d="M85.1,100.3c-21.2-28.4,5-37.4,4.1-50.4c20.7,16.1,13.2,41.5,1.7,53L85.1,100.3z"></path>
                        <path id="XMLID_3_"  style="fill: #87c242;" class="st3" d="M44.9,70l1-2.5c21.4,2.9,35.8,14.5,42,28c0.9,2-2,3.6-1.1,5.8C75.4,83.4,61.4,73.2,44.9,70"></path>
                        <path id="XMLID_2_"  style="fill: #87c242;" class="st3" d="M48.3,67.4C38.1,39.5,19.1,58.1,6.9,51.4C13,68.4,31.4,74,47.1,70.3L48.3,67.4z"></path>
                        <path id="XMLID_1_"  style="fill: #87c242;" class="st3" d="M71,77.8c11.2-30.5-16.1-33.3-22.3-45.4c-4.7,18.9,4,32.8,15.8,40.7L71,77.8z"></path>
                    </g>
                </g>
            </g>
        </g>
    </symbol>

    <symbol id="opeca_logo_horizontal" viewBox="0 0 245.64 56.39">
        <g id="Layer_1" data-name="Layer 1">
            <g>
            <path d="M54.15,34.06C62.37,37.68,70.88,44.71,81,47,72.68,43.63,66,33.82,54.15,34.06Zm-25-2.25A16.65,16.65,0,0,1,31.41,39a22.66,22.66,0,0,1,8.28-6.12h0c8.94-3.57,15.36-1,20.05-.35,3.53.51,9.11-.64,9.46-5.75V26.1c0-.42,0-.84-.08-1.26l1.23-.55C78.15,19.88,82,10.64,81.77,4.79c-8.16,21.76-48,6.49-52.56,27Zm-16-.55c9.49,2,4,15.66,23,25.17-21.53-6.2-13.75-21-23-25.17,1.66-.69,3.11-.83,4.35,0a8.5,8.5,0,0,0-4.07-2h0a4.84,4.84,0,0,1,5.56-.56c2.49-2.52,6.63-1.58,9.47,2.19h0C32.88,7.4,71.67,23.24,82.77.83L83,.3,83.16,0c.42,9.2-3.07,21.07-12.83,25.9.29,5.41-2.48,7.74-6.09,8.45C74.93,38.12,79.78,47,89.9,47.63a28.54,28.54,0,0,0,8.78-2.33h-.05C84.89,64.58,47.39,55,39.73,41.46c14.07,16,44.38,14.07,57,5l.06,0C71.13,60.66,54.21,20.91,31.39,39,30.8,36.38,28.27,28.55,22,28.64c-1.21.05-2.26.71-2.17,2.16a6.39,6.39,0,0,0-5-1.65c1.77.16,2.87,1.57,3.73,3.09h0l.06.08A9.46,9.46,0,0,0,13.19,31.26ZM24.1,32c.56.7.37,1.28.57,1.88a6.57,6.57,0,0,1,.31,1l-.78-.57c-.32-.24-.65-.1-1.42-.4a1.27,1.27,0,0,1-.72-1.64,1.33,1.33,0,0,1,.2-.35,1.13,1.13,0,0,1,1.58-.19A1,1,0,0,1,24.1,32Z" transform="translate(-0.36 -0.04)" style="fill: #23699a;fill-rule: evenodd"/>
            <g>
                <path d="M23.52,32.29c.2.18,1,1.77-.64.91a.56.56,0,0,1-.14-.77l0-.06a.53.53,0,0,1,.74-.07h0" transform="translate(-0.36 -0.04)" style="fill: #fff;fill-rule: evenodd"/>
                <path d="M15.42,30.7a12.67,12.67,0,0,1,5.37-8.15l-.67-.76c-3,2.66-5.18,5-5.75,9.1a5.3,5.3,0,0,1,1.05-.14m-.6,7.62c.76,3.05,1.85,3.49,2.48,3.14a20.65,20.65,0,0,1-2.05-8.9,7.59,7.59,0,0,0-1-.73,24.12,24.12,0,0,0,.53,6.45Z" transform="translate(-0.36 -0.04)" style="fill: #87c242;fill-rule: evenodd"/>
                <path d="M16.05,28.46c-3.38,2.81,1.52-3.21-.31-8.87l1.13-.26c1.11,2.71.59,5.51-.82,9.11" transform="translate(-0.36 -0.04)" style="fill: #87c242;fill-rule: evenodd"/>
                <path d="M19.61,22.43C20.23,14.78,28,17.82,30.37,16c-.63,4.31-5.52,7.56-10.38,7.1Z" transform="translate(-0.36 -0.04)" style="fill: #87c242;fill-rule: evenodd"/>
                <path d="M16.49,21.73C14,16.07,9,19.38,6.71,18.15c1.24,3.74,5.92,5.52,9.51,4.69Z" transform="translate(-0.36 -0.04)" style="fill: #87c242;fill-rule: evenodd"/>
                <path d="M15.8,19.79c-4.14-5.6,1-7.38.83-9.93,4.09,3.18,2.59,8.19.33,10.45Z" transform="translate(-0.36 -0.04)" style="fill: #87c242;fill-rule: evenodd"/>
                <path d="M7.85,13.82l.19-.5c4.22.56,7.05,2.86,8.28,5.51.18.4-.39.71-.22,1.15-2.24-3.52-5-5.53-8.28-6.16" transform="translate(-0.36 -0.04)" style="fill: #87c242;fill-rule: evenodd"/>
                <path d="M8.52,13.29c-2-5.49-5.79-1.82-8.16-3.13,1.21,3.31,4.82,4.45,7.94,3.71Z" transform="translate(-0.36 -0.04)" style="fill: #87c242;fill-rule: evenodd"/>
                <path d="M13,15.36c2.21-6-3.19-6.56-4.41-9a7.2,7.2,0,0,0,3.12,8Z" transform="translate(-0.36 -0.04)" style="fill: #87c242;fill-rule: evenodd"/>
            </g>
            </g>
        </g>
        <g id="Layer_2" data-name="Layer 2">
            <g>
            <path d="M115,42.49c0-10.3,6.79-22.86,18.53-22.86,7.52,0,10.74,5.59,10.74,12.13,0,11.1-6.94,24.46-18.41,24.46C118.45,56.22,115,49.86,115,42.49Zm7.71-1.08c0,4.83,1.7,8.8,5.69,8.8,4.76,0,11-6,11-18.44,0-5.59-2.46-8.53-5.52-8.53-6.62.05-11.16,10.4-11.16,18.22Z" transform="translate(-0.36 -0.04)" style="fill: #23699a"/>
            <path d="M146.59,34.35a11,11,0,0,1,6.13-2.26c2,0,3.12.8,2.62,2.59l-.55,2.15a12.3,12.3,0,0,1,9-4.69c2.89,0,5,2,3.72,6.91l-2.68,10.77c-.34,1.36.38,1.92,1.47,1.92A9.8,9.8,0,0,0,172,49.4a1.26,1.26,0,0,1,.93,1.08,1.49,1.49,0,0,1-.49,1.07c-2.58,2.49-6.23,4.66-9.9,4.66-2.73,0-5.63-1.18-4.3-6.68l2.3-9.36c.49-2-.27-2.77-1.48-2.77a8,8,0,0,0-4.82,2.48l-3.35,13.38c-.54,2.14-2.62,3-4.59,3a5.53,5.53,0,0,1-2.58-.6l4.55-18.07c.22-.77-.06-1.18-.55-1.18a2.07,2.07,0,0,0-1.07.57,1.57,1.57,0,0,1-.48-2.17A1.46,1.46,0,0,1,146.59,34.35Z" transform="translate(-0.36 -0.04)" style="fill: #23699a"/>
            <path d="M178.78,48.64c.55,2.54,2.58,3.49,5.08,3.49a17.15,17.15,0,0,0,11.33-5.08c1.42-.25,2,.75,1.36,1.59a20.79,20.79,0,0,1-15.42,7.58c-5.13,0-9.28-2.63-9.28-8.42,0-6.11,4.69-15.9,13.71-15.9,5,0,6.24,2.39,6.24,4.52C191.8,40.41,189.34,43.61,178.78,48.64Zm-.16-2c5.31-2.87,8.91-6.15,8.91-9.21a1.65,1.65,0,0,0-1.47-1.82h-.12C180.5,35.58,178.78,43.33,178.62,46.62Z" transform="translate(-0.36 -0.04)" style="fill: #23699a"/>
            <path d="M202.69,42.72l.35-.08c2.62-.72,6.28-5,7.59-10a6.78,6.78,0,0,1,2.63-.52c1.86,0,2.84,1.08,2.84,2.15,0,2.82-4.3,7-7.65,8.94.76,2.64,2.3,8.14,6.23,8.14,1.07,0,2.31-.84,3.71-2a1.25,1.25,0,0,1,.94,1.07,1.51,1.51,0,0,1-.5,1.08c-2,2.07-5.73,4.66-8,4.66-5.46,0-6.89-7.52-7.71-11.2l-1,.23-1.91,8c-.56,2.15-2.63,3-4.59,3a5.51,5.51,0,0,1-2.58-.61l4.48-18.07c.23-.8,0-1.18-.54-1.18a2.07,2.07,0,0,0-1.07.57,1.55,1.55,0,0,1-.43-2.16,1.6,1.6,0,0,1,.43-.43A10.79,10.79,0,0,1,202,32c2,0,3.05.75,2.62,2.59Z" transform="translate(-0.36 -0.04)" style="fill: #23699a"/>
            <path d="M240.09,48.27c-.61,2.4.11,3.44,1.21,3.44a3.51,3.51,0,0,0,3.06-2.27c1.07,0,1.64.48,1.64,1.27,0,3.3-4.49,5.51-7.52,5.51-2.57,0-5.14-1.07-5.09-4.75-2.29,2.77-5.18,4.75-8.31,4.75-5.68,0-6.83-4.9-6.83-7.9,0-8.24,6.18-16.42,13.77-16.42a9,9,0,0,1,5.6,1.53,5.78,5.78,0,0,1,6.3-.74Zm-6.62.14,3.07-12.6a8.67,8.67,0,0,0-2.58-.38c-6.61,0-9,7.43-9,12.55,0,2.36,1.26,3.4,2.95,3.4a8.17,8.17,0,0,0,5.52-2.91Z" transform="translate(-0.36 -0.04)" style="fill: #23699a"/>
            </g>
        </g>
    </symbol>



    <symbol id="discont" viewBox="0 0 512.003 512.003">
        <g>
            <g>
                <path d="M477.958,262.633c-2.06-4.215-2.06-9.049,0-13.263l19.096-39.065c10.632-21.751,2.208-47.676-19.178-59.023l-38.41-20.38
                    c-4.144-2.198-6.985-6.11-7.796-10.729l-7.512-42.829c-4.183-23.846-26.241-39.87-50.208-36.479l-43.053,6.09
                    c-4.647,0.656-9.242-0.838-12.613-4.099l-31.251-30.232c-17.401-16.834-44.661-16.835-62.061,0L193.72,42.859
                    c-3.372,3.262-7.967,4.753-12.613,4.099l-43.053-6.09c-23.975-3.393-46.025,12.633-50.208,36.479l-7.512,42.827
                    c-0.811,4.62-3.652,8.531-7.795,10.73l-38.41,20.38c-21.386,11.346-29.81,37.273-19.178,59.024l19.095,39.064
                    c2.06,4.215,2.06,9.049,0,13.263l-19.096,39.064c-10.632,21.751-2.208,47.676,19.178,59.023l38.41,20.38
                    c4.144,2.198,6.985,6.11,7.796,10.729l7.512,42.829c3.808,21.708,22.422,36.932,43.815,36.93c2.107,0,4.245-0.148,6.394-0.452
                    l43.053-6.09c4.643-0.659,9.241,0.838,12.613,4.099l31.251,30.232c8.702,8.418,19.864,12.626,31.03,12.625
                    c11.163-0.001,22.332-4.209,31.03-12.625l31.252-30.232c3.372-3.261,7.968-4.751,12.613-4.099l43.053,6.09
                    c23.978,3.392,46.025-12.633,50.208-36.479l7.513-42.827c0.811-4.62,3.652-8.531,7.795-10.73l38.41-20.38
                    c21.386-11.346,29.81-37.273,19.178-59.024L477.958,262.633z M196.941,123.116c29.852,0,54.139,24.287,54.139,54.139
                    s-24.287,54.139-54.139,54.139s-54.139-24.287-54.139-54.139S167.089,123.116,196.941,123.116z M168.997,363.886
                    c-2.883,2.883-6.662,4.325-10.44,4.325s-7.558-1.441-10.44-4.325c-5.766-5.766-5.766-15.115,0-20.881l194.889-194.889
                    c5.765-5.766,15.115-5.766,20.881,0c5.766,5.766,5.766,15.115,0,20.881L168.997,363.886z M315.061,388.888
                    c-29.852,0-54.139-24.287-54.139-54.139s24.287-54.139,54.139-54.139c29.852,0,54.139,24.287,54.139,54.139
                    S344.913,388.888,315.061,388.888z"/>
            </g>
        </g>
        <g>
            <g>
                <path d="M315.061,310.141c-13.569,0-24.609,11.039-24.609,24.608s11.039,24.608,24.609,24.608
                    c13.569,0,24.608-11.039,24.608-24.608S328.63,310.141,315.061,310.141z"/>
            </g>
        </g>
        <g>
            <g>
                <path d="M196.941,152.646c-13.569,0-24.608,11.039-24.608,24.608c0,13.569,11.039,24.609,24.608,24.609
                    c13.569,0,24.609-11.039,24.609-24.609C221.549,163.686,210.51,152.646,196.941,152.646z"/>
            </g>
        </g>
    </symbol>

    <symbol id="discont-2" viewBox="0 0 512.003 512.003">
        <g>
            <g>
                <path fill="#225992" d="M477.958,262.633c-2.06-4.215-2.06-9.049,0-13.263l19.096-39.065c10.632-21.751,2.208-47.676-19.178-59.023l-38.41-20.38
                    c-4.144-2.198-6.985-6.11-7.796-10.729l-7.512-42.829c-4.183-23.846-26.241-39.87-50.208-36.479l-43.053,6.09
                    c-4.647,0.656-9.242-0.838-12.613-4.099l-31.251-30.232c-17.401-16.834-44.661-16.835-62.061,0L193.72,42.859
                    c-3.372,3.262-7.967,4.753-12.613,4.099l-43.053-6.09c-23.975-3.393-46.025,12.633-50.208,36.479l-7.512,42.827
                    c-0.811,4.62-3.652,8.531-7.795,10.73l-38.41,20.38c-21.386,11.346-29.81,37.273-19.178,59.024l19.095,39.064
                    c2.06,4.215,2.06,9.049,0,13.263l-19.096,39.064c-10.632,21.751-2.208,47.676,19.178,59.023l38.41,20.38
                    c4.144,2.198,6.985,6.11,7.796,10.729l7.512,42.829c3.808,21.708,22.422,36.932,43.815,36.93c2.107,0,4.245-0.148,6.394-0.452
                    l43.053-6.09c4.643-0.659,9.241,0.838,12.613,4.099l31.251,30.232c8.702,8.418,19.864,12.626,31.03,12.625
                    c11.163-0.001,22.332-4.209,31.03-12.625l31.252-30.232c3.372-3.261,7.968-4.751,12.613-4.099l43.053,6.09
                    c23.978,3.392,46.025-12.633,50.208-36.479l7.513-42.827c0.811-4.62,3.652-8.531,7.795-10.73l38.41-20.38
                    c21.386-11.346,29.81-37.273,19.178-59.024L477.958,262.633z M196.941,123.116c29.852,0,54.139,24.287,54.139,54.139
                    s-24.287,54.139-54.139,54.139s-54.139-24.287-54.139-54.139S167.089,123.116,196.941,123.116z M168.997,363.886
                    c-2.883,2.883-6.662,4.325-10.44,4.325s-7.558-1.441-10.44-4.325c-5.766-5.766-5.766-15.115,0-20.881l194.889-194.889
                    c5.765-5.766,15.115-5.766,20.881,0c5.766,5.766,5.766,15.115,0,20.881L168.997,363.886z M315.061,388.888
                    c-29.852,0-54.139-24.287-54.139-54.139s24.287-54.139,54.139-54.139c29.852,0,54.139,24.287,54.139,54.139
                    S344.913,388.888,315.061,388.888z"/>
            </g>
        </g>
        <g>
            <g>
                <path fill="#225992" d="M315.061,310.141c-13.569,0-24.609,11.039-24.609,24.608s11.039,24.608,24.609,24.608
                    c13.569,0,24.608-11.039,24.608-24.608S328.63,310.141,315.061,310.141z"/>
            </g>
        </g>
        <g>
            <g>
                <path fill="#225992" d="M196.941,152.646c-13.569,0-24.608,11.039-24.608,24.608c0,13.569,11.039,24.609,24.608,24.609
                    c13.569,0,24.609-11.039,24.609-24.609C221.549,163.686,210.51,152.646,196.941,152.646z"/>
            </g>
        </g>
    </symbol>


     <symbol id="vk" viewBox="0 0 512 512">
        <path d="M545.451,400.298c-0.664-1.431-1.283-2.618-1.858-3.569c-9.514-17.135-27.695-38.167-54.532-63.102l-0.567-0.571
            l-0.284-0.28l-0.287-0.287h-0.288c-12.18-11.611-19.893-19.418-23.123-23.415c-5.91-7.614-7.234-15.321-4.004-23.13
            c2.282-5.9,10.854-18.36,25.696-37.397c7.807-10.089,13.99-18.175,18.556-24.267c32.931-43.78,47.208-71.756,42.828-83.939
            l-1.701-2.847c-1.143-1.714-4.093-3.282-8.846-4.712c-4.764-1.427-10.853-1.663-18.278-0.712l-82.224,0.568
            c-1.332-0.472-3.234-0.428-5.712,0.144c-2.475,0.572-3.713,0.859-3.713,0.859l-1.431,0.715l-1.136,0.859
            c-0.952,0.568-1.999,1.567-3.142,2.995c-1.137,1.423-2.088,3.093-2.848,4.996c-8.952,23.031-19.13,44.444-30.553,64.238
            c-7.043,11.803-13.511,22.032-19.418,30.693c-5.899,8.658-10.848,15.037-14.842,19.126c-4,4.093-7.61,7.372-10.852,9.849
            c-3.237,2.478-5.708,3.525-7.419,3.142c-1.715-0.383-3.33-0.763-4.859-1.143c-2.663-1.714-4.805-4.045-6.42-6.995
            c-1.622-2.95-2.714-6.663-3.285-11.136c-0.568-4.476-0.904-8.326-1-11.563c-0.089-3.233-0.048-7.806,0.145-13.706
            c0.198-5.903,0.287-9.897,0.287-11.991c0-7.234,0.141-15.085,0.424-23.555c0.288-8.47,0.521-15.181,0.716-20.125
            c0.194-4.949,0.284-10.185,0.284-15.705s-0.336-9.849-1-12.991c-0.656-3.138-1.663-6.184-2.99-9.137
            c-1.335-2.95-3.289-5.232-5.853-6.852c-2.569-1.618-5.763-2.902-9.564-3.856c-10.089-2.283-22.936-3.518-38.547-3.71
            c-35.401-0.38-58.148,1.906-68.236,6.855c-3.997,2.091-7.614,4.948-10.848,8.562c-3.427,4.189-3.905,6.475-1.431,6.851
            c11.422,1.711,19.508,5.804,24.267,12.275l1.715,3.429c1.334,2.474,2.666,6.854,3.999,13.134c1.331,6.28,2.19,13.227,2.568,20.837
            c0.95,13.897,0.95,25.793,0,35.689c-0.953,9.9-1.853,17.607-2.712,23.127c-0.859,5.52-2.143,9.993-3.855,13.418
            c-1.715,3.426-2.856,5.52-3.428,6.28c-0.571,0.76-1.047,1.239-1.425,1.427c-2.474,0.948-5.047,1.431-7.71,1.431
            c-2.667,0-5.901-1.334-9.707-4c-3.805-2.666-7.754-6.328-11.847-10.992c-4.093-4.665-8.709-11.184-13.85-19.558
            c-5.137-8.374-10.467-18.271-15.987-29.691l-4.567-8.282c-2.855-5.328-6.755-13.086-11.704-23.267
            c-4.952-10.185-9.329-20.037-13.134-29.554c-1.521-3.997-3.806-7.04-6.851-9.134l-1.429-0.859c-0.95-0.76-2.475-1.567-4.567-2.427
            c-2.095-0.859-4.281-1.475-6.567-1.854l-78.229,0.568c-7.994,0-13.418,1.811-16.274,5.428l-1.143,1.711
            C0.288,140.146,0,141.668,0,143.763c0,2.094,0.571,4.664,1.714,7.707c11.42,26.84,23.839,52.725,37.257,77.659
            c13.418,24.934,25.078,45.019,34.973,60.237c9.897,15.229,19.985,29.602,30.264,43.112c10.279,13.515,17.083,22.176,20.412,25.981
            c3.333,3.812,5.951,6.662,7.854,8.565l7.139,6.851c4.568,4.569,11.276,10.041,20.127,16.416
            c8.853,6.379,18.654,12.659,29.408,18.85c10.756,6.181,23.269,11.225,37.546,15.126c14.275,3.905,28.169,5.472,41.684,4.716h32.834
            c6.659-0.575,11.704-2.669,15.133-6.283l1.136-1.431c0.764-1.136,1.479-2.901,2.139-5.276c0.668-2.379,1-5,1-7.851
            c-0.195-8.183,0.428-15.558,1.852-22.124c1.423-6.564,3.045-11.513,4.859-14.846c1.813-3.33,3.859-6.14,6.136-8.418
            c2.282-2.283,3.908-3.666,4.862-4.142c0.948-0.479,1.705-0.804,2.276-0.999c4.568-1.522,9.944-0.048,16.136,4.429
            c6.187,4.473,11.99,9.996,17.418,16.56c5.425,6.57,11.943,13.941,19.555,22.124c7.617,8.186,14.277,14.271,19.985,18.274
            l5.708,3.426c3.812,2.286,8.761,4.38,14.853,6.283c6.081,1.902,11.409,2.378,15.984,1.427l73.087-1.14
            c7.229,0,12.854-1.197,16.844-3.572c3.998-2.379,6.373-5,7.139-7.851c0.764-2.854,0.805-6.092,0.145-9.712
            C546.782,404.25,546.115,401.725,545.451,400.298z"/>
    </symbol>

    <symbol id="fb" viewBox="0 0 430.113 430.114">
        <path id="Facebook" d="M158.081,83.3c0,10.839,0,59.218,0,59.218h-43.385v72.412h43.385v215.183h89.122V214.936h59.805
		c0,0,5.601-34.721,8.316-72.685c-7.784,0-67.784,0-67.784,0s0-42.127,0-49.511c0-7.4,9.717-17.354,19.321-17.354
		c9.586,0,29.818,0,48.557,0c0-9.859,0-43.924,0-75.385c-25.016,0-53.476,0-66.021,0C155.878-0.004,158.081,72.48,158.081,83.3z"/>
    </symbol>

    <symbol id="insta" viewBox="0 0 512 512">
        <g>
            <g>
                <path d="M352,0H160C71.648,0,0,71.648,0,160v192c0,88.352,71.648,160,160,160h192c88.352,0,160-71.648,160-160V160
                    C512,71.648,440.352,0,352,0z M464,352c0,61.76-50.24,112-112,112H160c-61.76,0-112-50.24-112-112V160C48,98.24,98.24,48,160,48
                    h192c61.76,0,112,50.24,112,112V352z"/>
            </g>
        </g>
        <g>
            <g>
                <path d="M256,128c-70.688,0-128,57.312-128,128s57.312,128,128,128s128-57.312,128-128S326.688,128,256,128z M256,336
                    c-44.096,0-80-35.904-80-80c0-44.128,35.904-80,80-80s80,35.872,80,80C336,300.096,300.096,336,256,336z"/>
            </g>
        </g>
        <g>
            <g>
                <circle cx="393.6" cy="118.4" r="17.056"/>
            </g>
        </g>
    </symbol>


    <symbol id="glasses" viewBox="0 0 512 512">
        <g>
            <g>
                <g>
                    <path d="M504.813,254.448L475.271,121.49c-4.75-21.292-23.292-36.156-45.083-36.156c-25.458,0-46.188,20.719-46.188,46.177v7.156
                        c0,5.896,4.771,10.667,10.667,10.667s10.667-4.771,10.667-10.667v-7.156c0-13.698,11.146-24.844,24.854-24.844
                        c11.729,0,21.708,8.01,24.25,19.458l29.542,132.948c3.667,16.521,5.833,33.375,6.479,50.26h-0.87
                        c-5.441-53.75-50.428-96-105.589-96c-48.228,0-88.613,32.385-101.758,76.398c-6.527-6.881-15.129-12.398-26.242-12.398
                        s-19.715,5.517-26.242,12.398c-13.145-44.013-53.53-76.398-101.758-76.398c-55.16,0-100.147,42.25-105.589,96h-0.87
                        c0.646-16.885,2.813-33.74,6.479-50.26l29.542-132.938c2.542-11.458,12.521-19.469,24.25-19.469
                        c13.708,0,24.854,11.146,24.854,24.844v7.156c0,5.896,4.771,10.667,10.667,10.667c5.896,0,10.667-4.771,10.667-10.667v-7.156
                        c0-25.458-20.729-46.177-46.188-46.177c-21.792,0-40.333,14.865-45.083,36.167L7.188,254.448C2.417,275.969,0,298.021,0,320
                        c0,5.896,4.771,10.667,10.667,10.667h11.745c5.441,53.75,50.428,96,105.589,96c57.904,0,104.951-46.451,106.398-104.012
                        c2.143-5.964,10.667-23.988,21.602-23.988c10.654,0,19.07,17.02,21.599,23.956c1.43,57.576,48.487,104.044,106.401,104.044
                        c55.16,0,100.147-42.25,105.589-96h11.745c5.896,0,10.667-4.771,10.667-10.667C512,298.021,509.583,275.969,504.813,254.448z
                        M128,405.333c-47.063,0-85.333-38.281-85.333-85.333c0-47.052,38.271-85.333,85.333-85.333s85.333,38.281,85.333,85.333
                        C213.333,367.052,175.063,405.333,128,405.333z M384,405.333c-47.063,0-85.333-38.281-85.333-85.333
                        c0-47.052,38.271-85.333,85.333-85.333s85.333,38.281,85.333,85.333C469.333,367.052,431.063,405.333,384,405.333z"/>
                    <path d="M128,256c-35.292,0-64,28.708-64,64c0,5.896,4.771,10.667,10.667,10.667c5.896,0,10.667-4.771,10.667-10.667
                        c0-23.531,19.146-42.667,42.667-42.667c5.896,0,10.667-4.771,10.667-10.667C138.667,260.771,133.896,256,128,256z"/>
                    <path d="M384,256c-35.292,0-64,28.708-64,64c0,5.896,4.771,10.667,10.667,10.667c5.896,0,10.667-4.771,10.667-10.667
                        c0-23.531,19.146-42.667,42.667-42.667c5.896,0,10.667-4.771,10.667-10.667C394.667,260.771,389.896,256,384,256z"/>
                </g>
            </g>
        </g>
    </symbol>


    <symbol id="arrow-right" viewBox="0 0 511.995 511.995">
        <path d="M381.039,248.62L146.373,3.287c-4.083-4.229-10.833-4.417-15.083-0.333c-4.25,4.073-4.396,10.823-0.333,15.083
            L358.56,255.995L130.956,493.954c-4.063,4.26-3.917,11.01,0.333,15.083c2.063,1.979,4.729,2.958,7.375,2.958
            c2.813,0,5.604-1.104,7.708-3.292L381.039,263.37C384.977,259.245,384.977,252.745,381.039,248.62z"/>
    </symbol>

     <symbol id="alarm" viewBox="0 0 252.84 252.83">
        <path d="M126.42,252.83A126.42,126.42,0,1,1,252.84,126.41,126.56,126.56,0,0,1,126.42,252.83Zm0-249.52a123.11,123.11,0,1,0,123.1,123.1A123.25,123.25,0,0,0,126.42,3.31Z" style="fill: #cee5f0"/>
        <g>
        <path d="M193,113.08a12.84,12.84,0,0,0-12.82-12.83,12.7,12.7,0,0,0-7,2.09,50.19,50.19,0,1,0-84.53,46.22,50.88,50.88,0,0,0,9.92,7.73H86.82A12.84,12.84,0,0,0,74,169.12v9.34a3.48,3.48,0,0,0,3.49,3.48h93.4a3.48,3.48,0,0,0,3.48-3.48v-9.34a12.72,12.72,0,0,0-2-6.85A68.66,68.66,0,0,0,193,113.08ZM167.2,157.61a12.8,12.8,0,0,0-5.66-1.32h-11.8a50.58,50.58,0,0,0,9.92-7.73,49.72,49.72,0,0,0,13.55-24.74A12.82,12.82,0,0,0,184.93,125a61.38,61.38,0,0,1-17.44,32.28l-.29.33Zm13-50.39a5.86,5.86,0,1,1-5.86,5.86,5.87,5.87,0,0,1,5.86-5.86ZM81,113.08a43.22,43.22,0,1,1,43.22,43.21A43.27,43.27,0,0,1,81,113.08ZM167.39,175H81v-5.85a5.87,5.87,0,0,1,5.86-5.86h74.72a5.87,5.87,0,0,1,5.85,5.86Zm0,0" style="fill: #75b5d1"/>
        <path d="M124.18,100.25A12.83,12.83,0,1,0,137,113.08a12.84,12.84,0,0,0-12.82-12.83Zm0,18.68a5.86,5.86,0,1,1,5.85-5.85,5.87,5.87,0,0,1-5.85,5.85Zm0,0" style="fill: #75b5d1"/>
        </g>
    </symbol>


     <symbol id="bed" viewBox="0 0 252.84 252.83">
        <path d="M126.42,252.83A126.42,126.42,0,1,1,252.84,126.41,126.56,126.56,0,0,1,126.42,252.83Zm0-249.52a123.11,123.11,0,1,0,123.1,123.1A123.25,123.25,0,0,0,126.42,3.31Z" style="fill: #cee5f0"/>
        <path d="M192.43,92.45h-9a2.25,2.25,0,0,0-2.25,2.25v13.71c-2.92-2.57-7.72-4.72-15.73-4.72-14.9,0-18.82,7.4-19.86,11.24h-9.36v-4.5a4.5,4.5,0,0,0-4.5-4.49h-9a4.5,4.5,0,0,0-4.5,4.49H71.05a6.75,6.75,0,0,0-6.74,6.75v11.24H62.06a2.24,2.24,0,0,0-2.25,2.24v31.47a2.25,2.25,0,0,0,2.25,2.25H68.8A2.25,2.25,0,0,0,71,162.5L73,150.89H181.54l1.93,11.61a2.25,2.25,0,0,0,2.22,1.88h6.74a2.25,2.25,0,0,0,2.25-2.25V94.7a2.25,2.25,0,0,0-2.25-2.25Zm-27,15.74c10.53,0,14,4.07,15.17,6.74H150.3c1.15-2.68,4.64-6.74,15.16-6.74Zm15.73,11.23v9H136.24v-9Zm-58.44-9h9v18h-9ZM68.8,117.18a2.25,2.25,0,0,1,2.25-2.25h47.2v13.49H68.8Zm-4.49,15.73H181.19V146.4H64.31Zm2.59,27H64.31v-9H68.4Zm123.29,0h-2.6l-1.9-11.43V97h4.5Zm0,0" style="fill: #75b5d1"/>
    </symbol>

     <symbol id="cutlery" viewBox="0 0 252.84 252.83">
        <path d="M126.42,252.83A126.42,126.42,0,1,1,252.84,126.41,126.56,126.56,0,0,1,126.42,252.83Zm0-249.52a123.11,123.11,0,1,0,123.1,123.1A123.25,123.25,0,0,0,126.42,3.31Z" style="fill: #cee5f0"/>
        <g>
        <path d="M84.62,72.39c-4.74,0-9.15,2.39-12.42,6.75a27,27,0,0,0,0,30.78,17.4,17.4,0,0,0,6.37,5.37l-3.64,54.8a9.71,9.71,0,1,0,19.37,0l-3.64-54.8A17.4,17.4,0,0,0,97,109.92a27,27,0,0,0,0-30.78C93.76,74.78,89.35,72.39,84.62,72.39ZM88.08,174a4.75,4.75,0,0,1-6.93,0,4.76,4.76,0,0,1-1.28-3.57l3.58-53.8c.39,0,.77,0,1.17,0s.77,0,1.16,0l3.58,53.8A4.75,4.75,0,0,1,88.08,174Zm-3.46-62.27a9,9,0,0,1-2.59-.39l-.21-.07c-5.43-1.78-9.48-8.6-9.48-16.73,0-9.48,5.51-17.19,12.28-17.19s12.27,7.71,12.27,17.19S91.38,111.72,84.62,111.72Z" style="fill: #75b5d1"/>
        <path d="M175.1,137V75.18h0a2.43,2.43,0,0,0-.35-1.62,2.48,2.48,0,0,0-3.41-.8,33.85,33.85,0,0,0-16.15,29h0v32.46a5.26,5.26,0,0,0,5.1,5.25V173a7.42,7.42,0,0,0,14.83,0V137Zm-14.67-2.46a.31.31,0,0,1-.3-.31V101.73h0a28.88,28.88,0,0,1,10-22v54.74ZM170.15,173a2.46,2.46,0,0,1-4.92,0V139.44h4.92Z" style="fill: #75b5d1"/>
        <path d="M137.46,72.39A2.48,2.48,0,0,0,135,74.86V103h-6.32V74.86a2.48,2.48,0,0,0-5,0V103h-6.32V74.86a2.48,2.48,0,0,0-5,0v35.88a7.34,7.34,0,0,0,7.33,7.33h.44l-3.48,52.27a9.48,9.48,0,1,0,18.92,0l-3.47-52.27h.44a7.33,7.33,0,0,0,7.32-7.33V74.86A2.48,2.48,0,0,0,137.46,72.39Zm-8,101.67a4.52,4.52,0,0,1-7.82-3.39l3.5-52.6h2l3.5,52.6A4.52,4.52,0,0,1,129.49,174.06ZM135,110.74a2.38,2.38,0,0,1-2.37,2.37H119.76a2.37,2.37,0,0,1-2.37-2.37V108H135Z" style="fill: #75b5d1"/>
        </g>
    </symbol>

    <symbol id="invalid-chair" viewBox="0 0 76.33 76.33">
        <circle cx="38.16" cy="38.16" r="37.66" style="fill: none;stroke: #cee5f0;stroke-miterlimit: 10"/>
        <g>
        <path d="M50.74,52.4a3,3,0,0,0-1.83-1.83l-.17-.06V31.67a3,3,0,0,0-3-3H31.42V19.93H23.25V21.6h6.5V37.44l-.22,0A9.5,9.5,0,1,0,40,45.84l0-.27h7.09v4.94l-.17.06a3,3,0,1,0,3.83,3.83l.06-.17h4.44V52.56H50.8ZM31.42,30.33H45.74a1.34,1.34,0,0,1,1.34,1.34V33H31.42Zm0,4.34H47.08v4.9H36.61l-.07-.06a9.43,9.43,0,0,0-4.9-2l-.22,0Zm-.84,20.06a7.83,7.83,0,1,1,7.83-7.83A7.84,7.84,0,0,1,30.58,54.73Zm9-10.83-.06-.17a9.93,9.93,0,0,0-1.06-2.11l-.27-.39h8.87V43.9Zm8.31,10.83a1.34,1.34,0,1,1,1.33-1.33A1.34,1.34,0,0,1,47.91,54.73Z" style="fill: #75b5d1"/>
        <path d="M30.58,41.73a5.17,5.17,0,1,0,5.17,5.17A5.17,5.17,0,0,0,30.58,41.73Zm0,8.67a3.5,3.5,0,1,1,3.5-3.5A3.5,3.5,0,0,1,30.58,50.4Z" style="fill: #75b5d1"/>
        <rect x="29.75" y="46.07" width="1.67" height="1.67" style="fill: #75b5d1"/>
        </g>
    </symbol>

    <symbol id="time-24" viewBox="0 0 76.33 76.33">
        <circle cx="38.16" cy="38.16" r="37.66" style="fill: none;stroke: #cee5f0;stroke-miterlimit: 10"/>
        <g>
        <path d="M57.26,54h-2V41.46a.65.65,0,0,0-.65-.66.64.64,0,0,0-.54.28L44.87,54.25a.66.66,0,0,0,.16.92.7.7,0,0,0,.38.11H54v2a.66.66,0,1,0,1.31,0v-2h2a.66.66,0,1,0,0-1.31ZM54,43.54V54h-7.3Z" style="fill: #75b5d1"/>
        <path d="M45.41,56.6h-7.8l7.25-8.53,0-.06a4.59,4.59,0,0,0-1-6.22,5.26,5.26,0,0,0-8.34,4.28.66.66,0,0,0,1.32,0,4,4,0,0,1,3.95-4,3.9,3.9,0,0,1,2.3.75,3.25,3.25,0,0,1,.73,4.38l-8.14,9.59a.66.66,0,0,0,.07.93.67.67,0,0,0,.43.16h9.22a.66.66,0,0,0,0-1.32Z" style="fill: #75b5d1"/>
        <path d="M36.2,53.32a.65.65,0,0,0-.63-.68h0A16.44,16.44,0,0,1,19.75,36.85h2.61a.66.66,0,0,0,0-1.32H19.75A16.42,16.42,0,0,1,35.53,19.75V21.7a.66.66,0,1,0,1.32,0V19.75A16.44,16.44,0,0,1,52.62,35.22l-2.57-2.56a.66.66,0,0,0-.93.93l3.68,3.67a.53.53,0,0,0,.25.19l.08,0a.35.35,0,0,0,.14,0h0l.15,0,.08,0a.61.61,0,0,0,.24-.15l3.72-3.72a.66.66,0,0,0-.93-.93l-2.63,2.63a17.75,17.75,0,0,0-17.7-16.87h-.1A17.74,17.74,0,0,0,18.42,36.14s0,0,0,0a.43.43,0,0,1,0,.05A17.76,17.76,0,0,0,35.52,54h0A.65.65,0,0,0,36.2,53.32Z" style="fill: #75b5d1"/>
        <path d="M45,27.34a.66.66,0,0,0-.94,0L37,34.42a2,2,0,0,0-1.68,0L32,31.07a.66.66,0,0,0-.93.93l3.34,3.34a2,2,0,0,0,3.17,2.25h0A2,2,0,0,0,38,35.34L45,28.27A.67.67,0,0,0,45,27.34Zm-8.39,9.31h0a.66.66,0,1,1,0-.93.65.65,0,0,1,0,.93Z" style="fill: #75b5d1"/>
        </g>
    </symbol>

    <symbol id="mic" viewBox="0 0 252.84 252.83">
        <path d="M126.42,252.83A126.42,126.42,0,1,1,252.84,126.41,126.56,126.56,0,0,1,126.42,252.83Zm0-249.52a123.11,123.11,0,1,0,123.1,123.1A123.25,123.25,0,0,0,126.42,3.31Z" style="fill: #cee5f0"></path>
        <g>
        <path d="M123.13,156.52a2.5,2.5,0,1,0-4.85,1.24l2.23,8.73a2.5,2.5,0,0,0,2.42,1.88,2.72,2.72,0,0,0,.63-.08,2.5,2.5,0,0,0,1.8-3Z" style="fill: #75b5d1"></path>
        <path d="M119.14,149.68a2.51,2.51,0,1,0-3.08-1A2.52,2.52,0,0,0,119.14,149.68Z" style="fill: #75b5d1"></path>
        <path d="M181.43,126.68l-3.13-9.06a18.37,18.37,0,0,0-35,11.08L154.6,168a16,16,0,0,1-22.5,18.74,15.77,15.77,0,0,1-7.35-7.56,12,12,0,0,0,8.46-14.55l-8.59-33.38v0L120.21,114a28.67,28.67,0,0,0,7.5-27.35h0a0,0,0,0,1,0,0,28.57,28.57,0,0,0-56,11v0a28.59,28.59,0,0,0,20.4,23.58l13,50.58a12,12,0,0,0,11.61,9,12.22,12.22,0,0,0,3-.37l.11,0a20.93,20.93,0,0,0,26.46,11.75,21,21,0,0,0,13.12-25.59l-11.32-39.26a13.37,13.37,0,0,1,25.48-8.07l3.12,9.06a2.51,2.51,0,0,0,4.74-1.63ZM94.17,71a23.52,23.52,0,0,1,28.16,15.2,70.17,70.17,0,0,1-32.25,9.73,62.92,62.92,0,0,1-13.56-.73A23.59,23.59,0,0,1,94.17,71ZM77.42,100.39a66.27,66.27,0,0,0,9.24.62c1.1,0,2.26,0,3.46-.09a75.05,75.05,0,0,0,33.35-9.62,23.62,23.62,0,0,1-7.69,20,25.35,25.35,0,0,1-4.24,3,24.19,24.19,0,0,1-5,2.07,21.12,21.12,0,0,1-3,.66A23.6,23.6,0,0,1,77.42,100.39Zm20.14,21.87c.82.07,1.65.11,2.48.11a28.89,28.89,0,0,0,12.78-3,28.45,28.45,0,0,0,3.12-1.81l3.36,13a35.9,35.9,0,0,1-8.93,3.37,41.7,41.7,0,0,1-9.47,1.3Zm25.78,52.09-4.86,1.25a7,7,0,0,1-8.5-5l-7.8-30.34a46.43,46.43,0,0,0,9.43-1.42,42.5,42.5,0,0,0,9-3.23l7.78,30.26h0A7,7,0,0,1,123.34,174.35Z" style="fill: #75b5d1"></path>
        <path d="M184.81,136.55a2.5,2.5,0,1,0-1.5,2.8A2.53,2.53,0,0,0,184.81,136.55Z" style="fill: #75b5d1"></path>
        </g>
    </symbol>

    <symbol id="stay-home" viewBox="0 0 512.694 512.694">
        <path d="m388.499 368.716c6.982 8.559 5.704 21.158-2.855 28.14-59.53 48.56-117.71 77.258-120.158 78.456-2.773 1.357-5.783 2.036-8.792 2.036-2.981 0-5.963-.666-8.716-1.999-2.46-1.191-60.936-29.733-120.632-78.514-8.553-6.989-9.821-19.589-2.832-28.142 6.99-8.554 19.589-9.82 28.142-2.832 42.867 35.029 85.977 59.394 103.996 68.971 17.966-9.628 60.923-34.071 103.707-68.971 8.56-6.984 21.158-5.704 28.14 2.855zm-347.007-82.365c3.037 0 6.121-.694 9.015-2.159 9.855-4.988 13.802-17.021 8.814-26.876-12.36-24.424-18.627-48.806-18.627-72.469 0-30.457 17.606-109.5 98-109.5 27.66 0 52.928 8.686 75.103 25.815 17.11 13.217 25.934 26.782 25.968 26.833 3.64 5.917 9.957 9.563 16.903 9.563s13.263-3.563 16.903-9.479c.087-.135 8.911-13.7 26.021-26.917 22.174-17.13 47.442-25.815 75.103-25.815 80.394 0 98 79.043 98 109.5 0 11.046 8.954 20 20 20s20-8.954 20-20c0-32.518-10.758-67.553-28.778-93.719-17.525-25.447-50.7-55.781-109.222-55.781-58.465 0-97.542 29.517-118 50.606-20.458-21.089-59.535-50.606-118-50.606-58.522 0-91.697 30.334-109.222 55.781-18.02 26.166-28.778 61.201-28.778 93.719 0 29.997 7.717 60.456 22.937 90.531 3.522 6.961 10.558 10.974 17.86 10.973zm461.666 68.397-52.157-35.056v-100.387c0-11.046-8.954-20-20-20h-80c-11.046 0-20 8.954-20 20v16.176l-63.351-45.391c-6.894-4.941-16.157-4.994-23.108-.134l-236 165c-9.053 6.329-11.26 18.798-4.931 27.851s18.798 11.26 27.851 4.931l224.398-156.888 83.493 59.823c6.093 4.366 14.119 4.958 20.787 1.532s10.861-10.293 10.861-17.79v-35.11h40v91.042c0 6.66 3.315 12.884 8.843 16.599l61 41c3.424 2.301 7.302 3.403 11.139 3.403 6.437 0 12.757-3.102 16.617-8.845 6.162-9.168 3.726-21.594-5.442-27.756zm-237.156.599c5.523 0 10-4.477 10-10v-20c0-5.523-4.477-10-10-10h-20c-5.523 0-10 4.477-10 10v20c0 5.523 4.477 10 10 10z"/>
    </symbol>

    <symbol id="heart" viewBox="0 0 512 512">
        <g id="Line_cutting_stroke_EX" data-name="Line cutting stroke EX"><g>
        <path fill="#306794" d="M233.0811,366.45l-2.1622,15.8535a186.27,186.27,0,0,0,50.1622,0L278.9189,366.45A171.0445,171.0445,0,0,1,233.0811,366.45Z"/>
        <path fill="#306794" d="M256,32a167.4283,167.4283,0,0,1,149.6865,91.6416l14.2461-7.2832a184.0531,184.0531,0,0,0-327.8652,0l14.2461,7.2832A167.4283,167.4283,0,0,1,256,32Z"/>
        <path fill="#306794" d="M495.125,308.5488,479.999,119.47a8,8,0,0,0-7.957-7.3623l-7.91-.0176h-.11a47.9992,47.9992,0,0,0-47.9971,48V224h16V160.09a32,32,0,0,1,31.9981-32h.0742l.541.001,14.5381,181.7334a22.0269,22.0269,0,0,1-4.0332,14.55l-73.626,102.9727A7.9992,7.9992,0,0,0,400.0244,432v64h16V434.5654l72.1338-100.8847A38.0546,38.0546,0,0,0,495.125,308.5488Z"/>
        <path fill="#306794" d="M431.0244,299.3125l.0029-.0039.0039-.0088.003-.0049.0049-.0078.0019-.0049.0069-.0127h.0009l.0069-.0127.0019-.0039.0049-.0088.002-.0039.0058-.0107.001-.002.0078-.0136.0068-.0137.001-.002.0059-.0117.001-.0019.0068-.0127c.0049-.01.0107-.0186.0146-.0283l.001-.001.0068-.0127v-.001a7.985,7.985,0,0,0,.712-1.958v-.001l.0039-.0146.0058-.03.001-.0029.002-.0108.0009-.0049.002-.0087.0019-.0059.002-.01.0019-.0117.001-.0039.002-.01.001-.0039a8.0206,8.0206,0,0,0,.164-1.6123V240h-16v42.3037l-.4824-.249a47.9029,47.9029,0,0,0-58.168,11.0537l-46.19,52.8379a67.8488,67.8488,0,0,0-14.4092,62.6475l15.25,55.9179V496h16V463.44a7.9787,7.9787,0,0,0-.2822-2.1045L312.21,404.3848A51.8835,51.8835,0,0,1,323.23,356.4775L369.42,303.64a31.94,31.94,0,0,1,38.7783-7.37l4.8282,2.4942-35.9952,64.792a8,8,0,0,0,13.9864,7.7695l40-72Z"/>
        <path fill="#306794" d="M75.4727,379.3467,62.457,388.6533,96,435.5654V497h16V433a7.9992,7.9992,0,0,0-1.4922-4.6533Z"/>
        <path fill="#306794" d="M154.65,294.1084a47.9005,47.9005,0,0,0-58.166-11.0537l-.4844.25V161.09a47.9992,47.9992,0,0,0-47.9961-48h-.1113l-7.91.0176a8,8,0,0,0-7.957,7.3623L16.8994,309.5488a38.0487,38.0487,0,0,0,6.9678,25.1319l27.15,37.9726,13.0156-9.3066L36.8818,325.374a22.0285,22.0285,0,0,1-4.0332-14.55L47.3867,129.0908l.541-.001h.0743A32,32,0,0,1,80,161.09V296.44a7.9586,7.9586,0,0,0,.1748,1.6621v.001l.002.0108.0009.0029.002.01.001.0029.0039.0166.0009.0068.001.0059.002.0078.001.0059.0029.0107.001.0029.0058.03.001.001.0029.0146a8.0159,8.0159,0,0,0,.7276,1.9522l.0009.0019.0059.0127.001.001.0146.0273.001.002.0059.0107.0019.003.0049.0107.002.0029.0068.0127.0078.0137.002.0029.0048.01.002.0039.0049.0088.0029.0039.0068.0127,40,72a8,8,0,1,0,13.9864-7.7695L98.998,299.7637l4.8291-2.4942a31.9335,31.9335,0,0,1,38.7764,7.37l46.1924,52.8379a51.8873,51.8873,0,0,1,11.0186,47.9073l-15.5323,56.9511A7.9787,7.9787,0,0,0,184,464.44V497h16V465.5117l15.25-55.917a67.8483,67.8483,0,0,0-14.4082-62.6484Z"/>
        <path fill="#306794" d="M255.8164,336a8,8,0,0,0,5.6611-2.3477L371.18,223.7881a70.0853,70.0853,0,0,0,0-98.8985,69.7814,69.7814,0,0,0-98.7871,0L255.8164,141.49,239.24,124.89a69.7814,69.7814,0,0,0-98.7871,0,70.0853,70.0853,0,0,0,0,98.8985l37.8858,37.9424,11.3222-11.3047-37.8857-37.9424a54.0639,54.0639,0,0,1,0-76.2891,53.7825,53.7825,0,0,1,76.1426,0l22.2373,22.2705a7.9993,7.9993,0,0,0,11.3222,0l22.2373-22.27a53.7825,53.7825,0,0,1,76.1426,0,54.0639,54.0639,0,0,1,0,76.2891L255.8164,316.6777l-50.2568-50.33-11.3223,11.3046,55.918,56A8,8,0,0,0,255.8164,336Z"/><path fill="#306794" d="M222.5977,228.1465l16.8964-27.8789,33.2871,59.25a8,8,0,0,0,6.4239,4.0635c.1845.0127.3681.0185.5517.0185a8.0013,8.0013,0,0,0,6.37-3.1611L307.7256,232h20.03V216h-24a8.0018,8.0018,0,0,0-6.3711,3.1611l-16.626,21.8907-34.0283-60.5694a7.9992,7.9992,0,0,0-6.8428-4.081c-.0439-.001-.0879-.001-.1328-.001a8.0009,8.0009,0,0,0-6.8408,3.8535L211.25,216H183.7559v16h32A8,8,0,0,0,222.5977,228.1465Z"/></g></g></svg>
    </symbol>


    <symbol id="cert" viewBox="0 0 512 512">
        <g><path d="m454 83.515-83.515-83.515h-248.485v272.274c-35.797 3.056-64 33.15-64 69.726 0 21 9.308 39.854 24 52.696v117.304h16.485l29.515-29.515 29.515 29.515h16.485v-52h280zm-80-63.03 59.515 59.515h-59.515zm-304 321.515c0-31.981 26.019-58 58-58s58 26.019 58 58-26.019 58-58 58-58-26.019-58-58zm58 123.515-34 34v-96.356c10.075 5.623 21.666 8.842 34 8.842s23.925-3.219 34-8.842v96.356zm46-17.515v-53.304c14.692-12.842 24-31.696 24-52.696 0-36.575-28.203-66.669-64-69.726v-260.274h228v80h80v356z"/><path d="m176 64h96v12h-96z"/><path d="m176 96h64v12h-64z"/><path d="m176 144h224v12h-224z"/><path d="m176 176h224v12h-224z"/><path d="m176 240h224v12h-224z"/><path d="m208 272h160v12h-160z"/><path d="m176 208h224v12h-224z"/><path d="m304 320h96v12h-96z"/><path d="m336 352h64v12h-64z"/><path d="m128 380c20.953 0 38-17.047 38-38s-17.047-38-38-38-38 17.047-38 38 17.047 38 38 38zm0-64c14.337 0 26 11.663 26 26s-11.663 26-26 26-26-11.663-26-26 11.663-26 26-26z"/></g>
    </symbol>

    <symbol id="h-24" viewBox="0 0 512 512">
        <g fill="#306794"><path  d="m157.979 495.227c-1.289 0-2.587-.249-3.825-.762-3.737-1.548-6.173-5.194-6.173-9.239v-65.312c-40.662-11.893-77.261-36.532-103.714-69.979-28.96-36.615-44.267-80.697-44.267-127.481 0-113.413 92.269-205.681 205.682-205.681h100.637c113.412 0 205.681 92.268 205.681 205.681 0 35.029-8.965 69.621-25.925 100.036-2.69 4.823-8.78 6.554-13.604 3.864-4.823-2.69-6.553-8.781-3.863-13.604 15.303-27.444 23.392-58.668 23.392-90.296 0-102.385-83.296-185.682-185.682-185.682h-100.636c-102.386.001-185.682 83.297-185.682 185.682 0 85.339 57.739 159.405 140.412 180.115 4.449 1.115 7.57 5.113 7.57 9.7v48.815l50.021-50.02c1.875-1.875 4.418-2.929 7.071-2.929h81.246c37.801 0 74.172-11.287 105.18-32.64 4.549-3.132 10.776-1.984 13.908 2.564 3.132 4.549 1.984 10.775-2.564 13.908-34.36 23.662-74.653 36.168-116.524 36.168h-77.104l-64.163 64.162c-1.913 1.914-4.471 2.93-7.074 2.93z"/><path id="XMLID_207_" d="m451.06 364.139c-2.63 0-5.21-1.07-7.07-2.93s-2.93-4.44-2.93-7.07 1.07-5.21 2.93-7.07 4.44-2.93 7.07-2.93 5.21 1.07 7.07 2.93 2.93 4.44 2.93 7.07-1.07 5.21-2.93 7.07c-1.86 1.861-4.44 2.93-7.07 2.93z"/><path id="XMLID_223_" d="m259.103 212.454h-2.621v-37.845c0-5.523-4.477-10-10-10s-10 4.477-10 10v37.845h-31.298v-37.845c0-5.523-4.477-10-10-10s-10 4.477-10 10v47.845c0 5.523 4.477 10 10 10h41.298v37.951c0 5.523 4.477 10 10 10s10-4.477 10-10v-37.951h2.621c5.523 0 10-4.477 10-10s-4.478-10-10-10z"/><path id="XMLID_204_" d="m147.435 280.405h-47.898c-4.044 0-7.691-2.437-9.239-6.173s-.692-8.038 2.167-10.898l30.963-30.963c9.032-9.032 14.006-21.04 14.006-33.812 0-7.691-6.258-13.949-13.949-13.949s-13.949 6.257-13.949 13.949c0 5.523-4.477 10-10 10s-10-4.477-10-10c0-18.719 15.229-33.949 33.949-33.949s33.949 15.229 33.949 33.949c0 18.114-7.054 35.145-19.863 47.955l-13.893 13.893h23.756c5.523 0 10 4.477 10 10s-4.476 9.998-9.999 9.998z"/><path id="XMLID_203_" d="m364.557 280.407c-1.503 0-3.029-.34-4.464-1.058-4.94-2.47-6.942-8.477-4.472-13.417l40.662-81.324h-31.718c-5.523 0-10-4.477-10-10s4.477-10 10-10h47.898c3.466 0 6.685 1.794 8.506 4.743 1.822 2.948 1.988 6.629.438 9.729l-47.898 95.796c-1.752 3.505-5.284 5.531-8.952 5.531z"/><path id="XMLID_202_" d="m292.34 296.457c-.857 0-1.728-.111-2.595-.343-5.334-1.429-8.5-6.913-7.071-12.248l34.297-128c1.429-5.334 6.913-8.5 12.248-7.071 5.334 1.429 8.5 6.913 7.071 12.248l-34.297 128c-1.197 4.467-5.238 7.414-9.653 7.414z"/></g>
    </symbol>

</svg>

